<svg width="540" height="1100" viewBox="0 0 540 1100" fill="none" xmlns="http://www.w3.org/2000/svg">
  <defs>
    <linearGradient id="bg" x1="74" y1="34" x2="472" y2="1060" gradientUnits="userSpaceOnUse">
      <stop stop-color="#EEF3F7"/>
      <stop offset="0.48" stop-color="#DCE5EE"/>
      <stop offset="1" stop-color="#F2F5F8"/>
    </linearGradient>
  </defs>

  <rect width="540" height="1100" fill="url(#bg)"/>

  <text x="42" y="84" fill="#5D6B79" font-family="Arial, sans-serif" font-size="16" letter-spacing="4">ULTIMATE VACATION</text>
  <text x="42" y="150" fill="#0F172A" font-family="Arial, sans-serif" font-size="44" font-weight="700">Keep the trip</text>
  <text x="42" y="198" fill="#0F172A" font-family="Arial, sans-serif" font-size="44" font-weight="700">moving.</text>
  <text x="42" y="242" fill="#5D6B79" font-family="Arial, sans-serif" font-size="20">Cleaner, cooler, more city-smart.</text>
  <text x="42" y="270" fill="#5D6B79" font-family="Arial, sans-serif" font-size="20">Start your account and run the plan.</text>

  <rect x="34" y="332" width="472" height="608" rx="34" fill="#F8FAFC" stroke="#E2E8EF"/>
  <rect x="66" y="366" width="116" height="34" rx="17" fill="#E6EDF5"/>
  <text x="98" y="388" fill="#4A6076" font-family="Arial, sans-serif" font-size="14" font-weight="700">START FREE</text>

  <text x="66" y="452" fill="#101826" font-family="Arial, sans-serif" font-size="34" font-weight="700">Sign up and run</text>
  <text x="66" y="490" fill="#101826" font-family="Arial, sans-serif" font-size="34" font-weight="700">the group better.</text>

  <text x="66" y="560" fill="#596877" font-family="Arial, sans-serif" font-size="16">Full name</text>
  <rect x="66" y="576" width="408" height="56" rx="18" fill="white" stroke="#DAE3EA"/>

  <text x="66" y="662" fill="#596877" font-family="Arial, sans-serif" font-size="16">Email</text>
  <rect x="66" y="678" width="408" height="56" rx="18" fill="white" stroke="#DAE3EA"/>

  <text x="66" y="764" fill="#596877" font-family="Arial, sans-serif" font-size="16">Password</text>
  <rect x="66" y="780" width="408" height="56" rx="18" fill="white" stroke="#DAE3EA"/>

  <rect x="66" y="858" width="408" height="58" rx="20" fill="#17212B"/>
  <text x="190" y="894" fill="white" font-family="Arial, sans-serif" font-size="19" font-weight="700">Create account</text>

  <rect x="66" y="934" width="408" height="56" rx="20" fill="white" stroke="#DAE3EA"/>
  <text x="207" y="969" fill="#243243" font-family="Arial, sans-serif" font-size="18" font-weight="700">Continue with Google</text>

  <rect x="66" y="1018" width="250" height="34" rx="17" fill="#17212B"/>
  <text x="92" y="1040" fill="#BFD0DE" font-family="Arial, sans-serif" font-size="13">Travel-day checklists included</text>
</svg>
